<svg xmlns="http://www.w3.org/2000/svg" version="1.1" xmlns:xlink="http://www.w3.org/1999/xlink" xmlns:svgjs="http://svgjs.dev/svgjs" viewBox="0 0 800 800"><circle r="4" cx="718" cy="284" fill="hsl(159, 75%, 70%)"></circle><circle r="6.5" cx="758" cy="341" fill="hsl(158, 75%, 70%)"></circle><circle r="6.5" cx="663" cy="351" fill="hsl(162, 75%, 70%)"></circle><circle r="13" cx="691" cy="445" fill="hsl(160, 75%, 70%)"></circle><circle r="13" cx="176" cy="209" fill="hsl(216, 75%, 70%)"></circle><circle r="8" cx="682" cy="783" fill="hsl(161, 75%, 70%)"></circle><circle r="10" cx="744" cy="421" fill="hsl(158, 75%, 70%)"></circle><circle r="7.5" cx="626" cy="186" fill="hsl(155, 75%, 70%)"></circle><circle r="8" cx="630" cy="297" fill="hsl(164, 75%, 70%)"></circle><circle r="12" cx="381" cy="370" fill="hsl(145, 75%, 70%)"></circle><circle r="4" cx="789" cy="23" fill="hsl(102, 75%, 70%)"></circle><circle r="9.5" cx="314" cy="489" fill="hsl(190, 75%, 70%)"></circle><circle r="2.5" cx="793" cy="95" fill="hsl(69, 75%, 70%)"></circle><circle r="5.5" cx="788" cy="662" fill="hsl(158, 75%, 70%)"></circle><circle r="11" cx="354" cy="262" fill="hsl(161, 75%, 70%)"></circle><circle r="7" cx="584" cy="609" fill="hsl(157, 75%, 70%)"></circle><circle r="6.5" cx="428" cy="669" fill="hsl(126, 75%, 70%)"></circle><circle r="10" cx="778" cy="201" fill="hsl(158, 75%, 70%)"></circle><circle r="8.5" cx="685" cy="138" fill="hsl(112, 75%, 70%)"></circle><circle r="12.5" cx="210" cy="718" fill="hsl(228, 75%, 70%)"></circle><circle r="6" cx="59" cy="567" fill="hsl(97, 75%, 70%)"></circle><circle r="12" cx="464" cy="127" fill="hsl(197, 75%, 70%)"></circle><circle r="11.5" cx="571" cy="111" fill="hsl(184, 75%, 70%)"></circle><circle r="6.5" cx="604" cy="786" fill="hsl(162, 75%, 70%)"></circle><circle r="7.5" cx="661" cy="101" fill="hsl(110, 75%, 70%)"></circle><circle r="5.5" cx="653" cy="275" fill="hsl(163, 75%, 70%)"></circle><circle r="6" cx="347" cy="555" fill="hsl(171, 75%, 70%)"></circle><circle r="5.5" cx="789" cy="357" fill="hsl(158, 75%, 70%)"></circle><circle r="6.5" cx="37" cy="495" fill="hsl(83, 75%, 70%)"></circle><circle r="6.5" cx="739" cy="258" fill="hsl(158, 75%, 70%)"></circle><circle r="8.5" cx="529" cy="238" fill="hsl(141, 75%, 70%)"></circle><circle r="14" cx="221" cy="672" fill="hsl(232, 75%, 70%)"></circle><circle r="8" cx="141" cy="442" fill="hsl(184, 75%, 70%)"></circle><circle r="9" cx="314" cy="299" fill="hsl(190, 75%, 70%)"></circle><circle r="6" cx="226" cy="12" fill="hsl(205, 75%, 70%)"></circle><circle r="8.5" cx="103" cy="522" fill="hsl(144, 75%, 70%)"></circle><circle r="5.5" cx="503" cy="634" fill="hsl(133, 75%, 70%)"></circle><circle r="11.5" cx="418" cy="108" fill="hsl(229, 75%, 70%)"></circle><circle r="5" cx="485" cy="613" fill="hsl(126, 75%, 70%)"></circle><circle r="7.5" cx="741" cy="569" fill="hsl(158, 75%, 70%)"></circle><circle r="9" cx="119" cy="100" fill="hsl(113, 75%, 70%)"></circle><circle r="13.5" cx="273" cy="690" fill="hsl(223, 75%, 70%)"></circle><circle r="11" cx="567" cy="351" fill="hsl(154, 75%, 70%)"></circle><circle r="11.5" cx="348" cy="321" fill="hsl(171, 75%, 70%)"></circle><circle r="10.5" cx="714" cy="604" fill="hsl(159, 75%, 70%)"></circle><circle r="8.5" cx="333" cy="224" fill="hsl(181, 75%, 70%)"></circle><circle r="14" cx="674" cy="628" fill="hsl(162, 75%, 70%)"></circle><circle r="8" cx="445" cy="454" fill="hsl(124, 75%, 70%)"></circle><circle r="5" cx="771" cy="275" fill="hsl(158, 75%, 70%)"></circle><circle r="8" cx="20" cy="728" fill="hsl(78, 75%, 70%)"></circle><circle r="7" cx="585" cy="215" fill="hsl(157, 75%, 70%)"></circle><circle r="6" cx="85" cy="551" fill="hsl(119, 75%, 70%)"></circle><circle r="6.5" cx="116" cy="413" fill="hsl(158, 75%, 70%)"></circle><circle r="9" cx="648" cy="493" fill="hsl(164, 75%, 70%)"></circle><circle r="6" cx="45" cy="306" fill="hsl(89, 75%, 70%)"></circle><circle r="12.5" cx="76" cy="687" fill="hsl(119, 75%, 70%)"></circle><circle r="10" cx="587" cy="311" fill="hsl(157, 75%, 70%)"></circle><circle r="6" cx="738" cy="321" fill="hsl(158, 75%, 70%)"></circle><circle r="5.5" cx="653" cy="70" fill="hsl(116, 75%, 70%)"></circle><circle r="6" cx="556" cy="612" fill="hsl(150, 75%, 70%)"></circle><circle r="10.5" cx="305" cy="257" fill="hsl(200, 75%, 70%)"></circle><circle r="6.5" cx="701" cy="254" fill="hsl(160, 75%, 70%)"></circle><circle r="12.5" cx="359" cy="35" fill="hsl(269, 75%, 70%)"></circle><circle r="10" cx="393" cy="308" fill="hsl(138, 75%, 70%)"></circle><circle r="12.5" cx="250" cy="437" fill="hsl(228, 75%, 70%)"></circle><circle r="15.5" cx="133" cy="711" fill="hsl(171, 75%, 70%)"></circle><circle r="11.5" cx="176" cy="668" fill="hsl(216, 75%, 70%)"></circle><circle r="6" cx="667" cy="170" fill="hsl(137, 75%, 70%)"></circle><circle r="7.5" cx="94" cy="150" fill="hsl(105, 75%, 70%)"></circle><circle r="6" cx="367" cy="566" fill="hsl(153, 75%, 70%)"></circle><circle r="11" cx="176" cy="757" fill="hsl(216, 75%, 70%)"></circle><circle r="7.5" cx="431" cy="767" fill="hsl(126, 75%, 70%)"></circle><circle r="8.5" cx="636" cy="145" fill="hsl(135, 75%, 70%)"></circle><circle r="8.5" cx="709" cy="83" fill="hsl(78, 75%, 70%)"></circle><circle r="7.5" cx="489" cy="346" fill="hsl(129, 75%, 70%)"></circle><circle r="9" cx="672" cy="30" fill="hsl(126, 75%, 70%)"></circle><circle r="9" cx="396" cy="628" fill="hsl(138, 75%, 70%)"></circle><circle r="15.5" cx="224" cy="288" fill="hsl(232, 75%, 70%)"></circle><circle r="11" cx="520" cy="100" fill="hsl(215, 75%, 70%)"></circle><circle r="7.5" cx="541" cy="554" fill="hsl(146, 75%, 70%)"></circle><circle r="13" cx="272" cy="231" fill="hsl(223, 75%, 70%)"></circle><circle r="9" cx="631" cy="577" fill="hsl(164, 75%, 70%)"></circle><circle r="11" cx="261" cy="546" fill="hsl(228, 75%, 70%)"></circle><circle r="15" cx="766" cy="767" fill="hsl(158, 75%, 70%)"></circle><circle r="8.5" cx="782" cy="470" fill="hsl(158, 75%, 70%)"></circle><circle r="7.5" cx="396" cy="678" fill="hsl(138, 75%, 70%)"></circle><circle r="10" cx="349" cy="75" fill="hsl(240, 75%, 70%)"></circle><circle r="10.5" cx="265" cy="55" fill="hsl(214, 75%, 70%)"></circle><circle r="7" cx="761" cy="666" fill="hsl(158, 75%, 70%)"></circle><circle r="11.5" cx="585" cy="748" fill="hsl(157, 75%, 70%)"></circle><circle r="5.5" cx="18" cy="286" fill="hsl(78, 75%, 70%)"></circle><circle r="5" cx="94" cy="44" fill="hsl(138, 75%, 70%)"></circle><circle r="11" cx="319" cy="687" fill="hsl(190, 75%, 70%)"></circle><circle r="13" cx="553" cy="66" fill="hsl(220, 75%, 70%)"></circle><circle r="8.5" cx="777" cy="244" fill="hsl(158, 75%, 70%)"></circle><circle r="9.5" cx="643" cy="540" fill="hsl(164, 75%, 70%)"></circle><circle r="10.5" cx="624" cy="21" fill="hsl(182, 75%, 70%)"></circle><circle r="11" cx="173" cy="606" fill="hsl(206, 75%, 70%)"></circle><circle r="5" cx="761" cy="69" fill="hsl(67, 75%, 70%)"></circle><circle r="4.5" cx="610" cy="216" fill="hsl(162, 75%, 70%)"></circle><circle r="5.5" cx="17" cy="520" fill="hsl(78, 75%, 70%)"></circle><circle r="6" cx="586" cy="472" fill="hsl(157, 75%, 70%)"></circle><circle r="11" cx="770" cy="711" fill="hsl(158, 75%, 70%)"></circle><circle r="11" cx="724" cy="185" fill="hsl(143, 75%, 70%)"></circle><circle r="9" cx="350" cy="507" fill="hsl(171, 75%, 70%)"></circle><circle r="9" cx="521" cy="438" fill="hsl(137, 75%, 70%)"></circle><circle r="7.5" cx="540" cy="280" fill="hsl(146, 75%, 70%)"></circle><circle r="4" cx="734" cy="286" fill="hsl(158, 75%, 70%)"></circle><circle r="13" cx="571" cy="23" fill="hsl(233, 75%, 70%)"></circle><circle r="7.5" cx="15" cy="379" fill="hsl(78, 75%, 70%)"></circle><circle r="9.5" cx="99" cy="278" fill="hsl(131, 75%, 70%)"></circle><circle r="10.5" cx="99" cy="765" fill="hsl(131, 75%, 70%)"></circle><circle r="10" cx="39" cy="21" fill="hsl(163, 75%, 70%)"></circle><circle r="11" cx="735" cy="471" fill="hsl(158, 75%, 70%)"></circle><circle r="11" cx="301" cy="573" fill="hsl(200, 75%, 70%)"></circle><circle r="9.5" cx="375" cy="209" fill="hsl(145, 75%, 70%)"></circle><circle r="6" cx="760" cy="307" fill="hsl(158, 75%, 70%)"></circle><circle r="11.5" cx="318" cy="105" fill="hsl(219, 75%, 70%)"></circle><circle r="9" cx="296" cy="531" fill="hsl(209, 75%, 70%)"></circle><circle r="16" cx="223" cy="356" fill="hsl(232, 75%, 70%)"></circle><circle r="8.5" cx="221" cy="104" fill="hsl(182, 75%, 70%)"></circle><circle r="11" cx="493" cy="478" fill="hsl(129, 75%, 70%)"></circle><circle r="9.5" cx="605" cy="269" fill="hsl(162, 75%, 70%)"></circle><circle r="7.5" cx="515" cy="578" fill="hsl(137, 75%, 70%)"></circle><circle r="11.5" cx="257" cy="506" fill="hsl(228, 75%, 70%)"></circle><circle r="6" cx="402" cy="570" fill="hsl(133, 75%, 70%)"></circle><circle r="6.5" cx="469" cy="719" fill="hsl(124, 75%, 70%)"></circle><circle r="9" cx="560" cy="154" fill="hsl(162, 75%, 70%)"></circle><circle r="7" cx="465" cy="533" fill="hsl(124, 75%, 70%)"></circle><circle r="10.5" cx="452" cy="289" fill="hsl(124, 75%, 70%)"></circle><circle r="8.5" cx="539" cy="680" fill="hsl(146, 75%, 70%)"></circle><circle r="13.5" cx="708" cy="683" fill="hsl(160, 75%, 70%)"></circle><circle r="7" cx="531" cy="626" fill="hsl(141, 75%, 70%)"></circle><circle r="11" cx="625" cy="363" fill="hsl(163, 75%, 70%)"></circle><circle r="5" cx="634" cy="218" fill="hsl(164, 75%, 70%)"></circle><circle r="10" cx="130" cy="247" fill="hsl(171, 75%, 70%)"></circle><circle r="10.5" cx="671" cy="390" fill="hsl(162, 75%, 70%)"></circle><circle r="8.5" cx="763" cy="373" fill="hsl(158, 75%, 70%)"></circle><circle r="9.5" cx="775" cy="149" fill="hsl(97, 75%, 70%)"></circle><circle r="11.5" cx="268" cy="105" fill="hsl(206, 75%, 70%)"></circle><circle r="6.5" cx="757" cy="597" fill="hsl(158, 75%, 70%)"></circle><circle r="12.5" cx="176" cy="450" fill="hsl(216, 75%, 70%)"></circle><circle r="7.5" cx="448" cy="345" fill="hsl(124, 75%, 70%)"></circle><circle r="9.5" cx="715" cy="759" fill="hsl(159, 75%, 70%)"></circle><circle r="7.5" cx="684" cy="226" fill="hsl(161, 75%, 70%)"></circle><circle r="14" cx="166" cy="324" fill="hsl(206, 75%, 70%)"></circle><circle r="9.5" cx="538" cy="779" fill="hsl(146, 75%, 70%)"></circle><circle r="7" cx="105" cy="460" fill="hsl(144, 75%, 70%)"></circle><circle r="5" cx="44" cy="158" fill="hsl(73, 75%, 70%)"></circle><circle r="13" cx="411" cy="245" fill="hsl(133, 75%, 70%)"></circle><circle r="10" cx="361" cy="682" fill="hsl(161, 75%, 70%)"></circle><circle r="10" cx="544" cy="734" fill="hsl(146, 75%, 70%)"></circle><circle r="6" cx="631" cy="242" fill="hsl(164, 75%, 70%)"></circle><circle r="9" cx="299" cy="783" fill="hsl(209, 75%, 70%)"></circle><circle r="9.5" cx="423" cy="154" fill="hsl(168, 75%, 70%)"></circle><circle r="12" cx="172" cy="377" fill="hsl(206, 75%, 70%)"></circle><circle r="8" cx="135" cy="147" fill="hsl(132, 75%, 70%)"></circle><circle r="6" cx="90" cy="434" fill="hsl(131, 75%, 70%)"></circle><circle r="8" cx="335" cy="189" fill="hsl(181, 75%, 70%)"></circle><circle r="10" cx="488" cy="256" fill="hsl(129, 75%, 70%)"></circle><circle r="6.5" cx="475" cy="588" fill="hsl(124, 75%, 70%)"></circle><circle r="12" cx="622" cy="627" fill="hsl(163, 75%, 70%)"></circle><circle r="10" cx="286" cy="141" fill="hsl(208, 75%, 70%)"></circle><circle r="11" cx="303" cy="634" fill="hsl(200, 75%, 70%)"></circle><circle r="11.5" cx="214" cy="624" fill="hsl(232, 75%, 70%)"></circle><circle r="11" cx="514" cy="143" fill="hsl(177, 75%, 70%)"></circle><circle r="14" cx="216" cy="542" fill="hsl(232, 75%, 70%)"></circle><circle r="7" cx="669" cy="198" fill="hsl(162, 75%, 70%)"></circle><circle r="4.5" cx="769" cy="34" fill="hsl(88, 75%, 70%)"></circle><circle r="4.5" cx="772" cy="95" fill="hsl(66, 75%, 70%)"></circle><circle r="10" cx="335" cy="154" fill="hsl(193, 75%, 70%)"></circle><circle r="6" cx="95" cy="586" fill="hsl(131, 75%, 70%)"></circle><circle r="9.5" cx="211" cy="68" fill="hsl(174, 75%, 70%)"></circle><circle r="9.5" cx="568" cy="252" fill="hsl(154, 75%, 70%)"></circle><circle r="7" cx="505" cy="201" fill="hsl(133, 75%, 70%)"></circle><circle r="4" cx="44" cy="410" fill="hsl(89, 75%, 70%)"></circle><circle r="9.5" cx="138" cy="538" fill="hsl(184, 75%, 70%)"></circle><circle r="12" cx="277" cy="181" fill="hsl(214, 75%, 70%)"></circle><circle r="14" cx="169" cy="271" fill="hsl(206, 75%, 70%)"></circle><circle r="6.5" cx="506" cy="661" fill="hsl(133, 75%, 70%)"></circle><circle r="13.5" cx="270" cy="301" fill="hsl(223, 75%, 70%)"></circle><circle r="12" cx="214" cy="773" fill="hsl(232, 75%, 70%)"></circle><circle r="8" cx="492" cy="780" fill="hsl(129, 75%, 70%)"></circle><circle r="11" cx="47" cy="768" fill="hsl(89, 75%, 70%)"></circle><circle r="10.5" cx="334" cy="442" fill="hsl(181, 75%, 70%)"></circle><circle r="10.5" cx="672" cy="714" fill="hsl(162, 75%, 70%)"></circle><circle r="12" cx="692" cy="516" fill="hsl(160, 75%, 70%)"></circle><circle r="7" cx="665" cy="755" fill="hsl(162, 75%, 70%)"></circle><circle r="12.5" cx="221" cy="149" fill="hsl(197, 75%, 70%)"></circle><circle r="8.5" cx="82" cy="219" fill="hsl(119, 75%, 70%)"></circle><circle r="6" cx="573" cy="183" fill="hsl(155, 75%, 70%)"></circle><circle r="15" cx="219" cy="475" fill="hsl(232, 75%, 70%)"></circle><circle r="6" cx="72" cy="65" fill="hsl(108, 75%, 70%)"></circle><circle r="15" cx="295" cy="356" fill="hsl(209, 75%, 70%)"></circle><circle r="6" cx="480" cy="748" fill="hsl(126, 75%, 70%)"></circle><circle r="9" cx="388" cy="164" fill="hsl(160, 75%, 70%)"></circle><circle r="10" cx="299" cy="418" fill="hsl(209, 75%, 70%)"></circle><circle r="4" cx="11" cy="211" fill="hsl(76, 75%, 70%)"></circle><circle r="8" cx="251" cy="23" fill="hsl(215, 75%, 70%)"></circle><circle r="13" cx="396" cy="30" fill="hsl(284, 75%, 70%)"></circle><circle r="6" cx="787" cy="393" fill="hsl(158, 75%, 70%)"></circle><circle r="4" cx="791" cy="540" fill="hsl(158, 75%, 70%)"></circle><circle r="5" cx="431" cy="561" fill="hsl(126, 75%, 70%)"></circle><circle r="10" cx="546" cy="482" fill="hsl(146, 75%, 70%)"></circle><circle r="6.5" cx="473" cy="645" fill="hsl(124, 75%, 70%)"></circle><circle r="11" cx="283" cy="468" fill="hsl(217, 75%, 70%)"></circle><circle r="8" cx="512" cy="712" fill="hsl(133, 75%, 70%)"></circle><circle r="8.5" cx="757" cy="509" fill="hsl(158, 75%, 70%)"></circle><circle r="6.5" cx="689" cy="347" fill="hsl(160, 75%, 70%)"></circle><circle r="7.5" cx="326" cy="536" fill="hsl(181, 75%, 70%)"></circle><circle r="9.5" cx="418" cy="716" fill="hsl(128, 75%, 70%)"></circle><circle r="4" cx="693" cy="294" fill="hsl(160, 75%, 70%)"></circle><circle r="13" cx="261" cy="393" fill="hsl(228, 75%, 70%)"></circle><circle r="12" cx="307" cy="63" fill="hsl(231, 75%, 70%)"></circle><circle r="9" cx="199" cy="25" fill="hsl(185, 75%, 70%)"></circle><circle r="11.5" cx="139" cy="647" fill="hsl(184, 75%, 70%)"></circle><circle r="11" cx="264" cy="589" fill="hsl(223, 75%, 70%)"></circle><circle r="7.5" cx="106" cy="627" fill="hsl(144, 75%, 70%)"></circle><circle r="11" cx="338" cy="611" fill="hsl(171, 75%, 70%)"></circle><circle r="7.5" cx="379" cy="596" fill="hsl(145, 75%, 70%)"></circle><circle r="10" cx="143" cy="776" fill="hsl(184, 75%, 70%)"></circle><circle r="6.5" cx="17" cy="611" fill="hsl(78, 75%, 70%)"></circle><circle r="11" cx="171" cy="130" fill="hsl(157, 75%, 70%)"></circle><circle r="7" cx="786" cy="608" fill="hsl(158, 75%, 70%)"></circle><circle r="10.5" cx="613" cy="104" fill="hsl(141, 75%, 70%)"></circle><circle r="8" cx="459" cy="384" fill="hsl(124, 75%, 70%)"></circle><circle r="8.5" cx="129" cy="373" fill="hsl(171, 75%, 70%)"></circle><circle r="7" cx="66" cy="182" fill="hsl(99, 75%, 70%)"></circle><circle r="5" cx="13" cy="160" fill="hsl(65, 75%, 70%)"></circle><circle r="6" cx="664" cy="253" fill="hsl(162, 75%, 70%)"></circle><circle r="11" cx="399" cy="422" fill="hsl(138, 75%, 70%)"></circle><circle r="7" cx="554" cy="204" fill="hsl(150, 75%, 70%)"></circle><circle r="6" cx="25" cy="462" fill="hsl(83, 75%, 70%)"></circle><circle r="6" cx="63" cy="447" fill="hsl(107, 75%, 70%)"></circle><circle r="8.5" cx="453" cy="182" fill="hsl(136, 75%, 70%)"></circle><circle r="13" cx="267" cy="739" fill="hsl(223, 75%, 70%)"></circle><circle r="6.5" cx="712" cy="34" fill="hsl(101, 75%, 70%)"></circle><circle r="13" cx="258" cy="634" fill="hsl(228, 75%, 70%)"></circle><circle r="9.5" cx="629" cy="747" fill="hsl(164, 75%, 70%)"></circle><circle r="5.5" cx="137" cy="573" fill="hsl(171, 75%, 70%)"></circle><circle r="8" cx="734" cy="226" fill="hsl(158, 75%, 70%)"></circle><circle r="6.5" cx="423" cy="332" fill="hsl(128, 75%, 70%)"></circle><circle r="11.5" cx="387" cy="763" fill="hsl(145, 75%, 70%)"></circle><circle r="11.5" cx="428" cy="70" fill="hsl(270, 75%, 70%)"></circle><circle r="9" cx="518" cy="523" fill="hsl(137, 75%, 70%)"></circle><circle r="10.5" cx="165" cy="73" fill="hsl(151, 75%, 70%)"></circle><circle r="9" cx="641" cy="419" fill="hsl(164, 75%, 70%)"></circle><circle r="5.5" cx="74" cy="620" fill="hsl(107, 75%, 70%)"></circle><circle r="9" cx="357" cy="119" fill="hsl(214, 75%, 70%)"></circle><circle r="4" cx="697" cy="277" fill="hsl(160, 75%, 70%)"></circle><circle r="10.5" cx="720" cy="384" fill="hsl(159, 75%, 70%)"></circle><circle r="5" cx="76" cy="123" fill="hsl(88, 75%, 70%)"></circle><circle r="6.5" cx="456" cy="784" fill="hsl(124, 75%, 70%)"></circle><circle r="8.5" cx="463" cy="221" fill="hsl(124, 75%, 70%)"></circle><circle r="11.5" cx="111" cy="330" fill="hsl(144, 75%, 70%)"></circle><circle r="7.5" cx="121" cy="43" fill="hsl(144, 75%, 70%)"></circle><circle r="5.5" cx="713" cy="314" fill="hsl(159, 75%, 70%)"></circle><circle r="14" cx="178" cy="508" fill="hsl(216, 75%, 70%)"></circle><circle r="6.5" cx="82" cy="403" fill="hsl(119, 75%, 70%)"></circle><circle r="9.5" cx="346" cy="401" fill="hsl(171, 75%, 70%)"></circle><circle r="7.5" cx="50" cy="342" fill="hsl(97, 75%, 70%)"></circle><circle r="11.5" cx="521" cy="389" fill="hsl(137, 75%, 70%)"></circle><circle r="7" cx="421" cy="535" fill="hsl(128, 75%, 70%)"></circle><circle r="5" cx="464" cy="562" fill="hsl(124, 75%, 70%)"></circle><circle r="8" cx="599" cy="149" fill="hsl(154, 75%, 70%)"></circle><circle r="7.5" cx="72" cy="502" fill="hsl(107, 75%, 70%)"></circle><circle r="6" cx="19" cy="247" fill="hsl(78, 75%, 70%)"></circle><circle r="8.5" cx="616" cy="60" fill="hsl(161, 75%, 70%)"></circle><circle r="11" cx="486" cy="86" fill="hsl(254, 75%, 70%)"></circle><circle r="10" cx="256" cy="782" fill="hsl(228, 75%, 70%)"></circle><circle r="5" cx="790" cy="287" fill="hsl(158, 75%, 70%)"></circle><circle r="9.5" cx="578" cy="564" fill="hsl(157, 75%, 70%)"></circle><circle r="8.5" cx="782" cy="425" fill="hsl(158, 75%, 70%)"></circle><circle r="11" cx="309" cy="19" fill="hsl(244, 75%, 70%)"></circle><circle r="5.5" cx="670" cy="294" fill="hsl(162, 75%, 70%)"></circle><circle r="7.5" cx="644" cy="783" fill="hsl(164, 75%, 70%)"></circle><circle r="8" cx="58" cy="252" fill="hsl(97, 75%, 70%)"></circle><circle r="8" cx="392" cy="524" fill="hsl(138, 75%, 70%)"></circle><circle r="5" cx="49" cy="612" fill="hsl(89, 75%, 70%)"></circle><circle r="16" cx="224" cy="205" fill="hsl(232, 75%, 70%)"></circle><circle r="11.5" cx="381" cy="475" fill="hsl(145, 75%, 70%)"></circle><circle r="7" cx="454" cy="419" fill="hsl(124, 75%, 70%)"></circle><circle r="8" cx="528" cy="182" fill="hsl(148, 75%, 70%)"></circle><circle r="7.5" cx="146" cy="404" fill="hsl(184, 75%, 70%)"></circle><circle r="9" cx="26" cy="660" fill="hsl(83, 75%, 70%)"></circle><circle r="5" cx="743" cy="628" fill="hsl(158, 75%, 70%)"></circle><circle r="5" cx="123" cy="586" fill="hsl(158, 75%, 70%)"></circle><circle r="5.5" cx="738" cy="651" fill="hsl(158, 75%, 70%)"></circle><circle r="11.5" cx="628" cy="695" fill="hsl(164, 75%, 70%)"></circle><circle r="5.5" cx="689" cy="314" fill="hsl(160, 75%, 70%)"></circle><circle r="7.5" cx="22" cy="566" fill="hsl(78, 75%, 70%)"></circle><circle r="6.5" cx="348" cy="786" fill="hsl(171, 75%, 70%)"></circle><circle r="7.5" cx="609" cy="437" fill="hsl(162, 75%, 70%)"></circle><circle r="9" cx="384" cy="98" fill="hsl(239, 75%, 70%)"></circle><circle r="16.5" cx="508" cy="26" fill="hsl(277, 75%, 70%)"></circle><circle r="6" cx="54" cy="384" fill="hsl(97, 75%, 70%)"></circle><circle r="7.5" cx="719" cy="343" fill="hsl(159, 75%, 70%)"></circle><circle r="10.5" cx="153" cy="22" fill="hsl(174, 75%, 70%)"></circle><circle r="7.5" cx="640" cy="459" fill="hsl(164, 75%, 70%)"></circle><circle r="10" cx="214" cy="584" fill="hsl(232, 75%, 70%)"></circle><circle r="6" cx="37" cy="204" fill="hsl(83, 75%, 70%)"></circle><circle r="4.5" cx="752" cy="286" fill="hsl(158, 75%, 70%)"></circle><circle r="6.5" cx="506" cy="317" fill="hsl(133, 75%, 70%)"></circle><circle r="8.5" cx="433" cy="593" fill="hsl(126, 75%, 70%)"></circle><circle r="12.5" cx="122" cy="195" fill="hsl(158, 75%, 70%)"></circle><circle r="13.5" cx="330" cy="746" fill="hsl(181, 75%, 70%)"></circle><circle r="8" cx="563" cy="404" fill="hsl(154, 75%, 70%)"></circle><circle r="9" cx="733" cy="127" fill="hsl(89, 75%, 70%)"></circle><circle r="12" cx="583" cy="674" fill="hsl(157, 75%, 70%)"></circle><circle r="6.5" cx="742" cy="21" fill="hsl(101, 75%, 70%)"></circle><circle r="6.5" cx="19" cy="116" fill="hsl(67, 75%, 70%)"></circle><circle r="7.5" cx="90" cy="370" fill="hsl(131, 75%, 70%)"></circle><circle r="7" cx="610" cy="480" fill="hsl(162, 75%, 70%)"></circle><circle r="5.5" cx="600" cy="180" fill="hsl(157, 75%, 70%)"></circle><circle r="6" cx="787" cy="323" fill="hsl(158, 75%, 70%)"></circle><circle r="13.5" cx="468" cy="49" fill="hsl(286, 75%, 70%)"></circle><circle r="11" cx="589" cy="521" fill="hsl(160, 75%, 70%)"></circle><circle r="7.5" cx="647" cy="324" fill="hsl(164, 75%, 70%)"></circle><circle r="9.5" cx="27" cy="70" fill="hsl(101, 75%, 70%)"></circle><circle r="4.5" cx="54" cy="111" fill="hsl(80, 75%, 70%)"></circle><circle r="7.5" cx="474" cy="685" fill="hsl(124, 75%, 70%)"></circle><circle r="5.5" cx="21" cy="429" fill="hsl(78, 75%, 70%)"></circle><circle r="9" cx="700" cy="561" fill="hsl(160, 75%, 70%)"></circle><circle r="9.5" cx="444" cy="496" fill="hsl(124, 75%, 70%)"></circle><circle r="8" cx="571" cy="442" fill="hsl(154, 75%, 70%)"></circle><circle r="6" cx="532" cy="307" fill="hsl(141, 75%, 70%)"></circle><circle r="13.5" cx="206" cy="410" fill="hsl(228, 75%, 70%)"></circle><circle r="11" cx="132" cy="491" fill="hsl(171, 75%, 70%)"></circle><circle r="10" cx="598" cy="398" fill="hsl(160, 75%, 70%)"></circle><circle r="7" cx="444" cy="637" fill="hsl(124, 75%, 70%)"></circle><circle r="10" cx="168" cy="565" fill="hsl(206, 75%, 70%)"></circle><circle r="8.5" cx="764" cy="548" fill="hsl(158, 75%, 70%)"></circle><circle r="12" cx="438" cy="18" fill="hsl(295, 75%, 70%)"></circle></svg>